<svg xmlns:xlink="http://www.w3.org/1999/xlink" width="112" height="32" fill="none" xmlns="http://www.w3.org/2000/svg"><path fill="#fff" d="M0 0h94.5v27H0z"/><path fill-rule="evenodd" clip-rule="evenodd" d="M26.118 19.039h1.568v2.606h-4.915v-6.728c0-2.075-.68-2.872-2.013-2.872-1.621 0-2.275 1.17-2.275 2.845v4.176h1.569v2.606H15.11v-6.755c0-2.075-.68-2.872-2.013-2.872-1.621 0-2.275 1.17-2.275 2.845v4.176h2.248v2.606H5.906v-2.606h1.57v-6.782h-1.57V9.678h4.942v1.808c.706-1.276 1.935-2.048 3.582-2.048 1.7 0 3.268.825 3.844 2.58.653-1.596 1.987-2.58 3.843-2.58 2.118 0 4.053 1.303 4.053 4.149v5.452h-.052zm9.282.24c-1.83 0-2.772-1.596-2.772-3.67 0-2.261 1.072-3.564 2.798-3.564 1.595 0 2.876 1.09 2.876 3.51 0 2.314-1.15 3.723-2.902 3.723zm.078-9.84c-4.236 0-6.327 2.898-6.327 6.409 0 3.829 2.51 6.09 6.144 6.09 3.765 0 6.484-2.42 6.484-6.25 0-3.35-2.065-6.25-6.3-6.25zm16.865 7.765l2.667.266-.732 4.202H44.002l-.34-1.809 6.484-7.58H46.46l-.523 1.863-2.432-.266.418-4.202h10.328l.262 1.808-6.537 7.58h3.818l.549-1.862zm5.15 4.468h3.53v-4.309h-3.53v4.309zm0-7.686h3.53V9.678h-3.53v4.308zm14.12-10.611l-5.099 18.27h-3.32l5.098-18.27h3.32zm6.85 0l-5.098 18.27h-3.321l5.099-18.27h3.32zm4.524 16.09c-1.02 0-1.386-.612-1.386-1.384 0-1.303 1.046-1.648 2.249-1.648.548 0 1.15.08 1.699.16-.078 1.994-1.36 2.872-2.562 2.872zm7.216.08a1.79 1.79 0 01-.497.079c-.549 0-.81-.24-.81-.93v-5.187c0-2.739-2.145-4.069-4.68-4.069-1.935 0-2.981.24-5.047 1.09l-.418 2.766 2.693.293.392-1.356c.55-.293 1.098-.346 1.804-.346 1.909 0 1.935 1.463 1.935 2.686v.399a15.167 15.167 0 00-1.935-.107c-2.693 0-5.49.692-5.49 3.644 0 2.5 1.934 3.43 3.634 3.43 1.909 0 3.111-1.17 3.79-2.393.158 1.463 1.02 2.393 2.59 2.393a4.49 4.49 0 002.117-.558l-.078-1.835z" fill="#000"/></svg>